<svg xmlns="http://www.w3.org/2000/svg" xmlns:xlink="http://www.w3.org/1999/xlink" width="106" height="26" viewBox="0 0 106 26">
    <defs>
        <path id="usp7hb9uvb" d="M0.515 0.617L9.016 0.617 9.016 11.777 0.515 11.777z"/>
        <path id="9ucgfmlqvd" d="M0.289 0.223L5.674 0.223 5.674 11 0.289 11z"/>
        <filter id="p5zwg2axta">
            <feColorMatrix in="SourceGraphic" values="0 0 0 0 0.298000 0 0 0 0 0.494000 0 0 0 0 0.749000 0 0 0 1.000000 0"/>
        </filter>
    </defs>
    <g fill="none" fill-rule="evenodd">
        <g>
            <g filter="url(#p5zwg2axta)" transform="translate(-807 -3887) translate(89 3377)">
                <g>
                    <path fill="#000" d="M6.476 8.246L8.091 12.85 2.989 14.64 1.373 10.036.001 10.518 3.647 20.918 5.021 20.436 3.429 15.892 8.53 14.103 10.123 18.646 11.498 18.164 7.849 7.764zM17.288 16.547L14.504 5.883 15.912 5.515 18.696 16.179z" transform="rotate(2 -14249.556 20844.09)"/>
                    <g>
                        <path fill="#000" d="M.416 17.012c.622-1.434.923-2.59.328-4.46l1.488-.306c.557 1.764.18 3.59-.818 4.855l-.997-.089zM20.85.81L20.958 2.149 17.609 2.421 18.394 12.071 16.942 12.189 16.158 2.539 12.809 2.812 12.7 1.472z" transform="rotate(2 -14249.556 20844.09) translate(23 .383)"/>
                        <g transform="rotate(2 -14249.556 20844.09) translate(23 .383) translate(26)">
                            <mask id="zvg9o43onc" fill="#fff">
                                <use xlink:href="#usp7hb9uvb"/>
                            </mask>
                            <path fill="#000" d="M7.56 0.731L9.016 0.755 8.832 11.777 7.377 11.752 7.457 6.938 2.051 6.848 1.97 11.663 0.515 11.638 0.698 0.617 2.154 0.641 2.072 5.52 7.479 5.61z" mask="url(#zvg9o43onc)"/>
                        </g>
                        <path fill="#000" d="M42.377 11.052L47.558 11.647 47.404 12.982 40.794 12.224 42.05 1.275 48.501 2.015 48.348 3.349 43.327 2.774 42.918 6.333 47.304 6.836 47.149 8.187 42.764 7.684zM56.033 4.65l-.853 4.105 2.256.468c1.582.328 2.382-.371 2.635-1.593.251-1.207-.278-2.198-1.375-2.426l-2.663-.553zm2.26 10.355l-1.988-4.661-1.394-.29-.846 4.074-1.426-.296 2.242-10.793 4.057.842c2.35.489 2.907 2.369 2.56 4.045-.326 1.567-1.565 3.04-3.52 2.783L60 15.36l-1.708-.356zM66.908 15.874L71.895 17.407 71.5 18.692 65.137 16.736 68.374 6.197 74.584 8.104 74.189 9.39 69.356 7.905 68.304 11.332 72.525 12.629 72.126 13.93 67.904 12.633z" transform="rotate(2 -14249.556 20844.09) translate(23 .383)"/>
                        <g transform="rotate(2 -14249.556 20844.09) translate(23 .383) translate(76 10)">
                            <mask id="bh83lu9w0e" fill="#fff">
                                <use xlink:href="#9ucgfmlqvd"/>
                            </mask>
                            <path fill="#000" d="M1.676 7.583l2.7-7.36 1.298.504-2.97 7.256-1.028-.4zM.354 9.663c.209-.537.792-.758 1.299-.56.522.203.819.764.61 1.3-.202.522-.794.721-1.316.52-.507-.197-.795-.738-.593-1.26z" mask="url(#bh83lu9w0e)"/>
                        </g>
                    </g>
                </g>
            </g>
        </g>
    </g>
</svg>
