<svg xmlns="http://www.w3.org/2000/svg" width="110" height="28" viewBox="0 0 110 28">
    <defs>
        <filter id="lt5xvwylza">
            <feColorMatrix in="SourceGraphic" values="0 0 0 0 0.298000 0 0 0 0 0.494000 0 0 0 0 0.749000 0 0 0 1.000000 0"/>
        </filter>
    </defs>
    <g fill="none" fill-rule="evenodd">
        <g>
            <g filter="url(#lt5xvwylza)" transform="translate(-955 -3888) translate(89 3377)">
                <g fill="#000">
                    <path d="M0 10.767L3.546 19.584 4.71 19.115 3.186 15.328 6.334 14.061 5.897 12.974 2.75 14.239 1.597 11.373 5.563 9.778 5.131 8.704z" transform="rotate(-1 29819.392 -49360.434)"/>
                    <g>
                        <path d="M2.267 12.604L.49 6.6l1.204-.356 1.777 6.004c.425 1.442 1.604 1.827 2.741 1.49 1.138-.335 1.916-1.3 1.49-2.741L5.926 4.992l1.203-.356 1.777 6.005c.614 2.076-.554 3.716-2.354 4.248-1.798.533-3.671-.208-4.285-2.285M18.529 2.217L19.763 1.988 21.488 11.33 20.295 11.55 14.668 5.229 15.984 12.346 14.749 12.574 13.025 3.234 14.245 3.008 19.839 9.307zM33.619 6.611l3.252-.102-1.762-4.262-1.49 4.364zm4.7 3.398l-1-2.41-4.078.128-.849 2.469-1.308.04L34.397.628 35.72.586l3.907 9.384-1.31.04zM53.29 1.278L54.624 1.381 50.689 10.606 49.604 10.524 48.36 4.411 46.207 10.261 45.121 10.177 42.648.457 43.981.56 45.824 8.239 48.062 2.175 49.01 2.249 50.308 8.558zM59.44 8.254l3.2.598-.807-4.543-2.393 3.945zm3.864 4.328l-.46-2.57-4.014-.75-1.357 2.23-1.287-.24 5.298-8.678 1.302.243 1.806 10.007-1.288-.242zM68.391 13.831L70.851 4.653 72.062 4.978 69.603 14.156zM83.389 8.617L83.01 9.711 80.274 8.76 77.534 16.64 76.349 16.228 79.089 8.348 76.354 7.397 76.734 6.302zM84.568 16.421l1.132.512c-.308.783.07 1.892 1.226 2.414 1.12.505 2.078.059 2.424-.708.38-.843-.217-1.567-.862-2.084l-.994-.782c-1.637-1.268-1.438-2.48-1.12-3.184.674-1.498 2.474-1.897 3.983-1.215 1.521.686 2.306 2.205 1.607 3.752l-1.132-.51c.392-.869-.058-1.783-.99-2.202-.867-.393-1.933-.177-2.32.678-.134.302-.307.951.714 1.774l.996.814c1.296 1.053 1.836 2.205 1.28 3.437-.608 1.346-2.263 2.098-4.061 1.286-1.825-.822-2.477-2.63-1.883-3.982M94.732 21.243l3.107-6.002 1.056.572-3.326 5.883-.837-.453zm-1.356 1.634c.237-.436.76-.56 1.171-.338.425.23.618.743.382 1.179-.23.425-.758.53-1.183.302-.412-.224-.6-.718-.37-1.143z" transform="rotate(-1 29819.392 -49360.434) translate(9.483 .405)"/>
                    </g>
                </g>
            </g>
        </g>
    </g>
</svg>
