<svg class="doodle--sun" xmlns="http://www.w3.org/2000/svg" xmlns:xlink="http://www.w3.org/1999/xlink" width="160" height="159" viewBox="0 0 160 159">
    <g fill="none">
        <g>
            <g>
                <g transform="translate(-88 -3606) translate(89 3377) translate(0 230)">
                    <path fill="#f9c9b0" stroke="#f9c9b0" stroke-linejoin="round" stroke-width="1.89" d="M98.966 130.138c.137.34.446.666.498.962.078.445.265.802.44 1.2.147.333.125.79.01 1.147-.208.643.531.987.464 1.592-.052.473-.228 1.028.358 1.416.104.07.037.364.04.554.004.323-.133.734.033.948.24.31.338.657.538.967.069.106.255.187.26.284.027.516.086 1.045-.007 1.548-.094.51.6.664.47 1.205-.118.484 0 1.018.015 1.53.6.36.146 1.034.415 1.382.502.652.414 1.325.362 1.995-.042.545.6.824.464 1.395-.102.433-.02.901-.02 1.354.805.685.333 1.57.405 2.36.075.835.03 1.68.004 2.52-.006.16-.188.311-.27.474-.193.379-.385.758-.558 1.144-.278.622-.778.84-1.482.726-.294-.271-.61-.53-.883-.825-.229-.247-.19-.65-.488-.867l-.112-.065c-.426-.19-.333-.658-.594-.937-.087-.093-.248-.226-.223-.293.3-.805-.576-1.412-.425-2.168.11-.55-.59-.823-.452-1.396.103-.432.02-.901.02-1.353-.935-.603.105-1.795-.843-2.394v-2.326c0-.516-.004-1.033-.007-1.549-.426-.249-.443-.603-.425-.963l.012-.217c.004-.071.006-.143.003-.213-.02-.517.02-1.035-.013-1.55-.024-.363-.523-.553-.429-1.006.078-.374.015-.773.016-1.16.002-.501-.613-.8-.448-1.397.133-.486.027-1.028.027-1.546-.432-.376-.461-.828-.44-1.286l.016-.276c.008-.138.014-.275.009-.41-.028-.71-.014-1.421-.004-2.132.005-.38.504-.824.928-.84.28-.01.574.046.84-.011.618-.133.91.52 1.476.477zm-46.268-5.388c.305.31.181.593.194.846.021.403.055.817-.01 1.21-.05.296-.395.598-.345.84.114.55-.506.783-.413 1.252.092.462-.342.687-.384 1.05-.052.455-.575.706-.42 1.248.117.404-.554.57-.379 1.042-.185.088-.267.244-.324.416l-.078.263c-.053.175-.122.34-.287.441-.044.714-.371 1.318-.689 1.93-.286.55-.505 1.145-.847 1.653-.266.396.067.897-.376 1.278-.29.248-.364.768-.527 1.17-.14.345-.384.622-.49 1.007-.112.408-.434.754-.664 1.127.231.647-.461 1.045-.414 1.642-.472.29-.462.884-.76 1.3-.315.44-.444 1.013-.72 1.51-.229.408-.401.912-.619 1.343-.335.664-.664 1.34-.998 2.004-.3.597-.553 1.253-.848 1.854-.327.665-.655 1.343-1.014 1.998-.326.593-.575 1.236-.882 1.846-.114.227-.19.475-.385.637-.137.114-.314.192-.485.244-.427.13-.683-.31-1.015-.368-.44-.076-.383-.343-.524-.631-.41-.837-.97-1.595-1.14-2.547.335-.806.668-1.614 1.174-2.328-.17-.526.585-.711.423-1.234.39-.2.263-.721.556-.973.35-.3.516-.696.711-1.11.263-.56.557-1.11.806-1.679.233-.535.588-.97.947-1.423.292-.369.339-.934.588-1.354.29-.487.44-1.086.954-1.413.338-.94.83-1.802 1.274-2.689.139-.277.336-.551.375-.845.053-.4.4-.502.56-.776.093-.16.158-.337.24-.503.196-.389.314-.87.611-1.14.406-.367.556-.85.804-1.288.216-.384.285-.858.694-1.121.1-.065.187-.185.234-.3.165-.401.217-.901.485-1.194.283-.308.195-.773.53-.997.402-.268.5-.72.695-1.12l.237-.472h0l.492-.935c.244-.468.478-.94.67-1.43.211-.542.608-.847.968-1.188.177-.169.587-.075.815-.093zm76.565-23.628c.26.358.608.42 1.026.438.282.012.548.269.832.386.399.164.714.495 1.227.449.331-.03.606.375.988.483.134.038.26.12.382.216l.242.195c.16.128.319.236.486.244.458.022.676.354 1.004.511 2.171 1.041 4.271 2.238 6.44 3.288 1.051.932 2.323 1.46 3.555 2.05.388.185.547.611.895.741.357.134.658.346.988.515.384.197.876.26 1.156.553.113.116.242.175.374.22l.266.087c.131.047.257.11.364.232.232.265.712.226.953.57.451-.156.599.507 1.027.413.882.852 2.003 1.267 3.051 1.816.169.088.285.284.455.461 0 .447.006.925-.001 1.402-.005.33.082.673-.243.932-.318.255-.025.679-.171.953-.151.282-.33.514-.427.855-.129.447-.672.536-1.05.768-.27.166-.325.139-.592.003-.495-.25-1.054-.441-1.46-.789-.4-.342-.831-.583-1.26-.855-.316-.202-.769-.158-.964-.575-.195-.417-.644-.382-.964-.576-.476-.287-.98-.52-1.488-.75-.393-.178-.805-.411-1.087-.735-.285-.326-.67-.354-.975-.57-.564-.399-1.289-.507-1.775-1.023-.496-.528-1.268-.661-1.668-1.308-.566.081-.718-.562-1.11-.703-.517-.187-.813-.691-1.247-.859-.458-.177-.745-.482-1.088-.769-.288-.241-.75-.184-.96-.576-.687-.17-1.292-.485-1.778-1.03-.081-.093-.198-.166-.312-.207-.726-.26-1.286-.786-1.915-1.203-.561-.372-1.234-.564-1.761-1.06-.31-.29-.732-.541-1.134-.608-.134-.022-.24-.098-.341-.183l-.149-.129c-.148-.124-.304-.219-.532-.133-.284-.286-.528-.642-.86-.844-.505-.308-.51-.901-.823-1.313-.312-.408-.026-.921-.209-1.475.546-.09.966-.03 1.147-.217.465-.479.992-.218 1.486-.29zM85.02 40.13c.075.065.258.009.39.009.398 0 .805-.051 1.19.015.356.06.72.405 1.025.346.551-.108.75.568 1.233.424.254-.076.43.023.594.146l.164.126c.083.062.169.117.267.146.473.143.874.417 1.426.43.373.01.72.453 1.107.648.435.22.915.354 1.35.575.386.195.73.471 1.11.683.155.088.418.042.523.156.531.575 1.27.768 1.913 1.139.54.31 1.221.42 1.63.834.467.473 1.164.574 1.54 1.096.256.353.698.277.976.546.228.22.488.409.748.591.095.067.262.043.344.117.52.468 1.018.926 1.646 1.29.665.386 1.148 1.079 1.71 1.637.517.512 1.057 1.003 1.539 1.545.285.32.452.741.72 1.08.245.307.555.564.836.843.328.326.654.654.985.977.32.312.248.872.703 1.093.404.196.2.74.563.954.421.248.489.715.707 1.091.25.43.369.938.833 1.245.32.212.293.657.534.971.233.305-.05.905.456 1.183-.068.206.013.351.121.486l.135.16c.088.108.162.223.16.37-.008.386.55.562.397 1.023-.128.384.43.58.365.814-.169.604.504.944.401 1.42-.118.547.504.73.437 1.227-.06.452-.075.93.004 1.377.025.144.082.277.146.409l.13.264c.104.223.183.46.126.75-.1.508-.02 1.05-.02 1.577v1.58c0 .526-.1 1.077.022 1.574.191.771-.609 1.247-.448 2.02.131.63.023 1.31.02 1.967-.677.488-.286 1.204-.392 1.814-.063.366-.5.563-.412 1.024.069.368.093.77-.306 1.062-.105.076-.073.36-.073.55 0 .39-.005.733-.337 1.061-.18.177-.007.713-.188.882-.364.34-.122.793-.305 1.066-.228.34-.313.651-.4 1.034-.106.47-.504.869-.395 1.412-.605.278-.155.997-.566 1.345-.31.262-.125.61-.214.903-.07.228-.391.445-.36.626.089.514-.273.824-.43 1.22-.183.461-.562.861-.397 1.417-.471.29-.453.872-.772 1.27-.255.32-.243.862-.516 1.152-.398.426-.587 1.007-.988 1.364-.418.37-.41.928-.813 1.268-.352.298-.675.634-.986.975-.38.417-.488 1.015-.978 1.382-.42.313-.884.67-1.111 1.116-.379.743-.944 1.313-1.527 1.862l-.5.47c-.332.315-.654.638-.934.997-.422.542-1.129.58-1.55 1.095-.417.508-.927.94-1.396 1.406-.313-.02-.519.143-.707.333l-.185.191c-.155.157-.319.295-.542.321-.623.073-.734.96-1.447.83-.39.448-.98.513-1.471.766-.492.254-.969.537-1.463.786-.656.33-1.4.546-1.96.992-.414.33-.93-.046-1.248.384-.232.313-.668.28-.982.53-.303.24-.818.048-1.221.419-.336.309-.993-.167-1.46.296-.35.346-.881.153-1.321.132-.543-.025-.835.565-1.432.435-.507-.11-1.056-.023-1.587-.023h-3.182c-.53 0-1.067.05-1.59-.01-.877-.102-1.842.362-2.621-.385-.465 0-.948-.081-1.388.021-.246.057-.426-.028-.593-.137l-.198-.134c-.132-.087-.27-.159-.442-.154-.586.014-1.174-.036-1.761-.059-.456-.582-1.125-.159-1.647-.346-.523-.187-1.033-.4-1.585-.49-.344-.573-1.215.01-1.507-.678-.542.105-.827-.706-1.427-.395-.927-.48-1.85-.966-2.782-1.436-.392-.198-.847-.285-1.102-.7-.216-.353-.753-.164-.962-.558-.26-.492-.97-.372-1.23-.844-.25-.452-.811-.336-1.116-.688-.345-.398-.679-.893-1.131-1.095-1.125-.502-1.778-1.49-2.629-2.27-.876-.803-1.695-1.668-2.539-2.506-.843-.838-1.672-1.692-2.54-2.505-.298-.279-.197-.71-.54-.98-.343-.271-.81-.534-.863-1.01-.045-.402-.446-.565-.466-1.017-.016-.378-.634-.543-.784-1.047-.132-.445-.28-.995-.721-1.269-.438-.272-.434-.759-.668-1.124-.36-.56-.665-1.175-.938-1.782-.3-.666-.618-1.33-.945-1.977-.302-.597-.568-1.224-.95-1.786-.276-.408.059-1.06-.521-1.365-.07-.49.234-1.064-.327-1.445-.024-.517-.034-1.035-.075-1.55-.054-.684-.564-1.25-.42-2.014.061-.318.067-.646.058-.977l-.026-.663c-.004-.11-.006-.22-.006-.33v-4.148c0-.724-.034-1.45.01-2.172.034-.553-.226-1.164.339-1.648.134-.116.01-.503.055-.755.089-.492-.21-1.025.234-1.488.353-.368.088-.874.158-1.312.676-.253.147-1.028.564-1.339.456-.34-.021-.933.414-1.218.467-.307.017-.862.4-1.233.292-.284.422-.736.61-1.12.187-.384.286-.834.552-1.148.293-.347.236-.866.645-1.125-.05-.723.972-.868.883-1.612l1.108-1.124h0c-.078-.661.533-.865.873-1.215 1.471-1.517 2.985-2.994 4.49-4.479.418-.411.796-.952 1.305-1.159.531-.215.796-.637 1.199-.94.451-.34 1.063-.455 1.384-.975.962-.112 1.242-1.283 2.203-1.395.359-.577 1.075-.65 1.539-1.08.694.115.769-.9 1.46-.79.618-.65 1.43-.98 2.225-1.343.78-.357 1.502-.835 2.32-1.115.15-.254.364-.288.587-.293l.192-.002c.096-.002.19-.008.28-.034.282-.082.44-.487.834-.376.205-.385.704-.295.953-.561.276-.295.592-.198.905-.237.113-.014.21-.13.325-.169.145-.048.283-.119.418-.195l.27-.155c.315-.18.64-.335 1.045-.264.278-.264.644-.356.975-.52.225-.11.38-.361.57-.543.278-.264.648-.015.931-.151.055-.026.103-.065.148-.107l.135-.131c.093-.084.2-.151.361-.135l.264.013h0l.531-.008h4.575c1.06 0 2.126-.06 3.181.018.222.017.448.005.676-.014l.342-.03c.627-.053 1.252-.07 1.81.413zm-10.955 3.68c-.19.407-.71.2-.977.548-.276.36-.943-.127-1.203.431-2.078.914-4.057 2.032-6.14 2.935-.65.598-1.666.628-2.205 1.398-.314.072-.597.212-.873.366l-.412.233c-.069.039-.138.077-.208.112-.5.259-.692.888-1.377 1.018-.446.084-.629.826-1.255.786-.393.423-.835.754-1.376.996-.461.206-.617.835-1.197.952-.562.114-.833.627-1.16 1.005-.358.414-.88.506-1.255.83-.5.43-.946.923-1.415 1.389l-1.548 1.537c-.47.466-.9.982-1.418 1.384-.584.453-.663 1.257-1.262 1.66-.567.38-.63 1.099-1.118 1.523-.193.166-.313.358-.389.633-.077.28-.414.479-.591.743-.134.199-.133.535-.303.651-.366.25-.174.738-.541.985-.36.242.09.777-.29 1.058-.4.295-.181.72-.236 1.09-.019.124.016.319-.053.365-.63.423-.08 1.195-.44 1.594-.489.541-.207 1.115-.299 1.666-.032.193.08.472-.019.58-.457.498-.446 1.056-.4 1.617l.028.336c.017.224.026.446-.002.664-.057.454-.01.921-.01 1.382v1.186c0 .461.072.937-.019 1.38-.108.526.393.797.407 1.224.032.987.01 1.976.01 2.837.168.318.339.525.385.757.062.315-.078.712.067.958.16.272.337.507.407.829.037.167.268.285.328.455.71 2.009 1.279 3.149 2.185 4.44.245.349.527.737.582 1.135.08.587.717.694.85 1.243.145.594.625 1.07.926 1.598.36.632.816 1.134 1.31 1.628 1.778 1.776 3.552 3.555 5.357 5.303.36.348.642.765 1.173.99.51.216.833.893 1.343 1.07.475.164.71.553 1.095.722.483.213.823.626 1.253.82.428.193.758.438 1.085.737.088.08.243.19.32.161.588-.216.892.504 1.432.407.285.477.942.37 1.263.79.489-.111.68.536 1.234.425.472-.095.824.554 1.43.397.227-.059.427.39.822.385.556-.008 1.207-.256 1.628.373l1.591.002h0c.357.558.921.374 1.428.394.073.003.152-.001.234-.008l.245-.021c.202-.016.387-.016.484.077.636.607 1.375.245 2.057.35 1.069.163 2.228-.391 3.219.394.863 0 1.738.086 2.582-.038.394-.059.745-.434 1.236-.366.325.045.673.06.99-.007.292-.06.58-.392.83-.352.692.11 1.128-.714 1.829-.425.21-.478.768-.388 1.128-.666.358-.277.921-.188 1.383-.49.761-.499 1.622-.871 2.48-1.193.466-.175.623-.65 1.055-.813.401-.151.8-.311 1.195-.475.057-.024.09-.098.143-.135.422-.292.617-.83 1.185-.981.596-.16.942-.696 1.305-1.133.353-.425.934-.378 1.274-.813.627-.806 1.49-1.386 1.998-2.34.356-.669 1.038-1.201 1.663-1.682.642-.494.817-1.294 1.392-1.812.294-.266.544-.582.852-.83.366-.294.22-.885.697-1.103.403-.184.263-.707.567-.948.365-.29.476-.747.735-1.071.3-.377.195-.727.266-1.092.021-.108.228-.177.254-.287.127-.539.611-.933.555-1.564-.03-.341.405-.574.408-1.02.003-.395.22-.845.475-1.166.229-.287.254-.555.306-.875.047-.289.303-.541.365-.83.065-.308.007-.6.275-.888.332-.357-.054-1.052.536-1.352-.241-.743.288-1.335.412-2.008.053-.289.308-.54.37-.83.066-.315.072-.668.001-.982-.104-.463.389-.652.405-1.025.025-.592.007-1.186.007-1.779.546-.358.387-.914.396-1.417.01-.593.002-1.186.002-1.78v-4.615c-.168-.32-.339-.527-.385-.759-.062-.315-.03-.649-.038-.975-.657-.3-.208-1.055-.668-1.524-.394-.403-.564-1.08-.6-1.71-.407-.19-.232-.691-.545-.973-.259-.233-.21-.715-.551-.948.062-.33-.112-.516-.31-.684l-.15-.124c-.049-.041-.096-.083-.139-.128-.266-.283-.161-.76-.555-.962-.384-.199-.338-.676-.576-.942-.572-.64-1.208-1.222-1.818-1.828-.076-.571-.427-.926-.814-1.252l-.26-.215c-.173-.144-.342-.29-.487-.455-.65-.744-1.395-1.409-2.099-2.107-.041-.041-.084-.09-.128-.143l-.13-.158c-.108-.128-.214-.233-.303-.221-.733.099-.808-.785-1.463-.854-.541-.057-.755-.867-1.422-.86-.33-.402-.745-.666-1.24-.848l-.336-.145h0l-.658-.333c-.111-.052-.223-.101-.338-.143-.15-.054-.266-.159-.374-.276l-.157-.18c-.184-.207-.381-.392-.728-.344-.575-.486-1.292-.732-1.949-1.06-.876-.44-1.76-.87-2.635-1.312-.579.235-.888-.492-1.428-.396-.254-.669-1.027-.15-1.35-.563-.147-.188-.352-.214-.563-.217h-.21c-.244-.005-.471-.041-.597-.333-.322-.024-.643-.058-.965-.07-.332-.012-.76.13-.98-.025-1.028-.731-2.16-.283-3.236-.354-1.255-.082-2.52-.015-3.78-.022-.314-.002-.598.005-.915-.204-.563-.371-1.23-.239-1.859-.074zM26.848 91.133c.41.076.794.308 1.193.473.214.37.083.778.107 1.168.021.334.004.67.004.98-.593.758-1.566.83-2.22 1.43-.496-.148-.677.553-1.226.441-.302-.061-.694.385-1.01.34-.578-.085-.842.522-1.424.487-.423-.025-.912.341-1.297.635-.382.292-.876-.066-1.249.39-.246.3-.755.37-1.14.556-.392.189-.722.513-1.224.426-.127-.023-.287.292-.45.315-.557.078-.948.725-1.59.478-.307.449-.896.403-1.28.783-.213.21-.7-.044-1.06.302-.34.327-1.03-.013-1.35.542-.508.004-.823.633-1.426.435-.15-.05-.4.261-.619.375-.544.282-1.082.72-1.65.77-.618.056-1.086.368-1.525.65-.948.609-2.161.581-2.997 1.402-.391.01-.783.024-1.174.028-.234.003-.235.557-.568.27-.11-.096-.246-.163-.387-.222l-.212-.088c-.317-.133-.609-.293-.647-.741-.028-.327-.35-.42-.39-.646-.07-.392-.02-.807-.02-1.224.269-.139.567-.244.807-.429.076-.058.173-.097.274-.132l.151-.053c.25-.09.471-.215.395-.641.298-.226.756-.17.957-.568.216.082.373-.011.519-.136l.173-.154c.146-.125.301-.221.516-.144.243-.417.657-.313 1.027-.404.403-.099.785-.355 1.13-.609.305-.225.765-.16.962-.562.318.115.582-.002.84-.146l.259-.147c.217-.117.442-.206.705-.15.39.084.557-.573 1.02-.397.452.173.603-.493 1.02-.402.437.096.694-.227 1.027-.4.868-.454 1.92-.481 2.67-1.218.552.15.981-.166 1.406-.428.421-.26.935-.34 1.293-.716 1.043.058 1.747-.99 2.798-.903.262-.297.751-.294.946-.549.36-.473.937-.025 1.228-.414.308-.411.84-.07 1.054-.303.386-.42.818-.298 1.25-.376.353-.064.674-.323 1.027-.376.45-.068.93-.08 1.377.002zM155.611 54.82c.88 0 .88.001 2.204.614-.048.433.025.963-.18 1.324-.247.436-.28 1.014-.798 1.315-.333.193-.55.586-.856.843-.34.286-.52.73-1.049.847-.405.091-.779.326-1.218.428-.398.091-.772.505-1.228.345-.548-.192-.7.575-1.231.441-.374-.094-.788-.018-1.184-.018-.416.846-1.423.003-1.9.706-.055.081-.226.084-.346.111-.547.124-1.131-.218-1.67.307-.399.388-1.18-.203-1.592.454-.026.04-.111.048-.171.058-.561.093-1.15-.18-1.695.224-.513.38-1.139.194-1.704.165-.548-.028-.843.576-1.425.45-.442-.096-.92-.02-1.382-.02-.623.792-1.497.19-2.205.43-.472.16-.87.484-1.428.405-.513-.073-1.043-.016-1.537-.016-.09-.103-.184-.202-.278-.3l-.283-.29c-.471-.483-.918-.982-1.1-1.773.197-.203.483-.545.815-.83.299-.254.788.121 1.067-.296.275-.41.81.022 1.058-.3.313-.408.705-.324 1.075-.292.598.052.974-.727 1.618-.421.293-.502.773-.454 1.221-.4.542.064.803-.688 1.433-.452.2.075.528-.283.818-.362.239-.065.512.026.706-.228.07-.093.202-.172.315-.188.098-.015.2-.015.303-.012l.206.01c.344.014.68.002.918-.394.443-.027.93.074 1.214-.43.75.275 1.257-.684 2.015-.414.489.175.68-.585 1.226-.425.352.102.72.04 1.065-.3.368-.362 1.024.203 1.452-.307.349-.415 1.078.06 1.348-.583.12-.025.245-.023.373-.014l.254.022c.253.02.496.017.686-.169.41-.398.855-.235 1.288-.258.592-.03 1.188-.008 1.782-.007zM5.38 33.075c.364.034.896-.06 1.224.151.366.235.876.214 1.137.648.119.197.296.443.62.39 1.058.87 2.34 1.35 3.548 1.954 1.203.603 2.405 1.208 3.61 1.807.39.195.79.335 1.118.675.284.294.723.454 1.11.64.33.157.694.243 1.022.402.386.188.779.385 1.115.645.257.199.625.064.853.386.1.141.474.085.719.14.116.026.224.096.331.154.377.206.744.433 1.131.618.385.184.875.239 1.163.51.34.32.9.204 1.136.66.028.053.335-.043.37.015.171.275.424.444.694.593l.409.218c.27.15.525.32.699.598 0 .362.028.755-.008 1.143-.04.436.146.882-.14 1.31-.479.714-.69 1.585-1.403 2.17-.36.296-.734.28-1.077.146-.397-.156-.83-.373-1.089-.688-.591-.722-1.455-.956-2.222-1.36-.484-.256-1.013-.455-1.475-.727-.422-.249-.763-.618-1.25-.819-.448-.184-.866-.482-1.327-.617-.518-.153-.61-.89-1.254-.802-.382-.35-.714-.796-1.161-1.023-.463-.235-.817-.625-1.246-.814-.43-.189-.835-.385-1.062-.744-.309-.489-.843-.57-1.274-.789-.462-.236-.813-.645-1.242-.816-.513-.204-.919-.486-1.205-.883-.295-.41-.82-.325-1.125-.673-.344-.394-.742-.743-1.116-1.111-.328-.323-.62-.694-.993-.955-.454-.318-.548-.83-.835-1.232-.164-.23-.17-.474-.156-.723l.02-.3c.004-.1.003-.2-.012-.3l.642-.597zM120.163 5.67l.678.625c.202.44.076.892.098 1.331.02.388-.037.784.016 1.165.054.392-.429.573-.366.805.161.594-.485.928-.385 1.397.113.538-.527.724-.407 1.206-.423.303-.313.949-.764 1.233-.15.675-.467 1.25-.952 1.742-.114.116-.194.333-.182.496.026.36-.098.617-.366.824-.326.25-.5.558-.42.995.018.1-.066.228-.122.332-.567 1.055-1.065 2.145-1.618 3.207-.553 1.062-1.01 2.172-1.6 3.218-.178.316-.247.716-.57.916-.32.2-.215.567-.397.812-.395.534-.474 1.276-.961 1.723-.475.435-.482 1.168-1.058 1.52-.113.068-.065.371-.17.497-.396.47-.614 1.053-1.02 1.535-.314.374-.46.962-.724 1.425-.305.538-.986.508-1.435.069-.323-.317-.236-.843-.626-1.112-.05-.035-.03-.314.032-.351.484-.29.17-.893.424-1.178.268-.3.205-.727.514-.963.397-.304-.02-.848.385-1.214.283-.257.426-.72.531-1.12.097-.36.43-.554.474-.981.04-.379.562-.707.599-1.085.047-.473.57-.688.472-1.174.413-.241.33-.77.629-1.105.225-.252.293-.642.5-.951.226-.338.225-.857.487-1.139.315-.34.209-.704.315-1.048.121-.394.396-.74.608-1.103.181-.311.174-.73.518-.948-.096-.809.444-1.365.76-2.014.313-.644.485-1.393.914-1.934.377-.475-.012-1.2.619-1.502.128-.726.553-1.332.872-1.962.238-.47.386-1.05.9-1.385.3-.193.495-.494.592-.915.063-.274.395-.684.879-.563l1.327-1.326zM58.626.014c.392-.015.786.017 1.176-.01.321-.023.436.234.628.393.101.083.153.196.191.317l.07.246c.05.162.118.313.293.4-.154.739.614 1.257.45 2.01-.127.592.681.98.387 1.63.462.3.411.768.396 1.23-.018.58.617.987.423 1.618.594.282.153 1.004.555 1.361.411.365-.042 1.083.551 1.366.022.097.03.2.034.304l.007.207c.015.276.065.539.374.71.034.445-.075.937.41 1.23.03.017-.005.128.007.192.068.378-.188.828.144 1.13.298.271.198.589.259.898.083.421.533.722.386 1.234-.124.433.256.693.368 1.038.152.467-.193 1.068.358 1.448.02.524.053 1.048.054 1.572 0 .445.057.861-.319 1.277-.248.274.042.892-.435 1.21-.114.075-.094.497-.15.5-.644.037-.886.695-1.622 1.045-.452-.5-.925-.89-1.22-1.39-.258-.438-.577-.83-.82-1.252-.264-.457-.322-1.047-.528-1.568-.204-.516.255-1.196-.335-1.656l-.077-1.563c-.576-.588-.295-1.347-.421-2.025-.064-.339-.45-.593-.375-1.038.068-.397.025-.782-.358-1.05-.064-.045-.029-.249-.026-.38.009-.457.014-.865-.367-1.259-.207-.213.135-.782-.303-1.055-.05-.031-.104-.093-.115-.148-.082-.44.203-.956-.171-1.32-.353-.342-.242-.744-.21-1.107.045-.497-.586-.687-.429-1.238.102-.36 0-.718-.285-1.077-.195-.247-.071-.755-.09-1.146-.358-.207-.396-.538-.393-.884l.006-.298c.003-.347-.032-.679-.384-.888-.005-.33-.04-.664-.004-.99.019-.17.165-.325.246-.491.196-.401.715-.235.949-.564.19-.267.469-.16.715-.17z"/>
                    <g transform="translate(95.445 129.465)"/>
                    <g transform="translate(0 90.72)"/>
                </g>
            </g>
        </g>
    </g>
</svg>
